<svg width="26" height="26" viewBox="0 0 26 26" xmlns="http://www.w3.org/2000/svg">
<path d="M3.35625 21.7656C3.35625 21.7134 3.37699 21.6633 3.41391 21.6264C3.45083 21.5895 3.50091 21.5687 3.55312 21.5687H22.8469C22.8991 21.5687 22.9492 21.5895 22.9861 21.6264C23.023 21.6633 23.0437 21.7134 23.0437 21.7656V22.9469C23.0437 22.9991 23.023 23.0491 22.9861 23.0861C22.9492 23.123 22.8991 23.1437 22.8469 23.1437H3.55312C3.50091 23.1437 3.45083 23.123 3.41391 23.0861C3.37699 23.0491 3.35625 22.9991 3.35625 22.9469V21.7656Z" fill="black"/>
<path d="M16.4214 5.41047L21.1198 10.1089L9.9867 21.2419L5.28833 16.5436L16.4214 5.41047ZM16.9783 3.73993C16.6707 3.43239 16.1721 3.43239 15.8646 3.73993L3.61777 15.9867C3.31025 16.2943 3.31025 16.7929 3.61777 17.1004L9.42987 22.9125C9.73741 23.22 10.236 23.22 10.5436 22.9125L22.7903 10.6657C23.0979 10.3582 23.0979 9.85955 22.7903 9.55203L16.9783 3.73993Z" fill="black"/>
<path d="M15.6522 4.34216L21.8646 10.5545L16.8529 15.5661L10.6406 9.35379L15.6522 4.34216Z" fill="black"/>
</svg>
