<svg width="24" height="23" viewBox="0 0 24 23" xmlns="http://www.w3.org/2000/svg">
<path d="M18.82 10.8399L15.8333 7.38661C15.8333 7.29327 15.8333 7.19994 15.74 7.10661L14.9933 2.15994C14.9933 1.87994 14.62 1.69327 14.34 1.78661L9.58001 3.46661H9.39335L4.35335 3.27994C4.07335 3.27994 3.79335 3.46661 3.88668 3.83994L4.44668 8.78661V8.97328L2.48668 13.2666C2.39335 13.5466 2.58001 13.8266 2.86001 13.9199L7.24668 14.4799C7.34001 14.4799 7.43335 14.5733 7.52668 14.6666L10.8867 18.4933C11.0733 18.7733 11.4467 18.6799 11.6333 18.3999L14.34 13.9199C14.34 13.8266 14.4333 13.8266 14.5267 13.7333L18.6333 11.4933C19.0067 11.3999 19.0067 11.0266 18.82 10.8399ZM13.6867 12.1466C13.3133 12.3333 13.0333 12.6133 12.8467 12.9866L11.0733 15.7866L9.02001 13.3599C8.64668 12.8933 8.08668 12.6133 7.52668 12.6133L4.91335 12.3333L6.03335 9.62661C6.22001 9.25327 6.22001 8.87994 6.22001 8.50661L5.84668 5.23994L9.30001 5.42661C9.58001 5.42661 9.95335 5.42661 10.2333 5.33327L13.4067 4.21327L13.9667 7.38661C13.9667 7.85327 14.1533 8.22661 14.4333 8.59994L16.3 10.7466L13.6867 12.1466Z"/>
<path d="M14.76 15.3144L16.0807 13.9946L20.304 18.2189L18.9843 19.5386L14.76 15.3144Z"/>
</svg>
