<svg width="21" height="21" viewBox="0 0 21 21" xmlns="http://www.w3.org/2000/svg">
<path d="M20.5882 5.90128L14.6646 0.25499C14.5187 0.11611 14.3282 0.0466695 14.1186 0.0414429C13.9143 0.0436829 13.7192 0.124323 13.5771 0.26619L2.55633 11.2422C2.45035 11.3475 2.37893 11.4819 2.35051 11.626L0.863661 19.3413C0.816045 19.5884 0.898989 19.8416 1.08484 20.0155C1.22923 20.1522 1.42123 20.2253 1.61861 20.2253C1.6739 20.2253 1.73073 20.2194 1.78603 20.2074L8.80478 18.6857C8.95147 18.6544 9.08587 18.5804 9.19032 18.4752L20.6043 6.95259C20.8962 6.65691 20.8893 6.188 20.5882 5.90128ZM8.92305 16.5921L5.98238 13.7577C5.68056 13.4665 5.19365 13.4688 4.89643 13.7622C4.59768 14.0556 4.59998 14.5275 4.90104 14.818L7.59825 17.4171L2.58782 18.5043L3.81816 12.1233L14.1393 1.84539L18.9693 6.44934L8.92305 16.5921Z" fill="black"/>
</svg>
