<svg width="25" height="25" viewBox="0 0 25 25" xmlns="http://www.w3.org/2000/svg">
<path d="M21.4375 22.6031H3.0625C2.85944 22.6031 2.6647 22.5225 2.52112 22.3789C2.37754 22.2353 2.29688 22.0406 2.29688 21.8375V3.46252C2.29688 3.25947 2.37754 3.06473 2.52112 2.92115C2.6647 2.77756 2.85944 2.6969 3.0625 2.6969H21.4375C21.6406 2.6969 21.8353 2.77756 21.9789 2.92115C22.1225 3.06473 22.2031 3.25947 22.2031 3.46252V21.8375C22.2031 22.0406 22.1225 22.2353 21.9789 22.3789C21.8353 22.5225 21.6406 22.6031 21.4375 22.6031ZM3.82812 21.0719H20.6719V4.22815H3.82812V21.0719Z" fill="black"/>
<path d="M16.8438 8.8219H7.65625C7.45319 8.8219 7.25845 8.74124 7.11487 8.59765C6.97129 8.45407 6.89062 8.25933 6.89062 8.05627C6.89062 7.85322 6.97129 7.65848 7.11487 7.5149C7.25845 7.37131 7.45319 7.29065 7.65625 7.29065H16.8438C17.0468 7.29065 17.2415 7.37131 17.3851 7.5149C17.5287 7.65848 17.6094 7.85322 17.6094 8.05627C17.6094 8.25933 17.5287 8.45407 17.3851 8.59765C17.2415 8.74124 17.0468 8.8219 16.8438 8.8219Z" fill="black"/>
<path d="M12.25 18.0094C12.0469 18.0094 11.8522 17.9287 11.7086 17.7852C11.565 17.6416 11.4844 17.4468 11.4844 17.2438V8.05627C11.4844 7.85322 11.565 7.65848 11.7086 7.5149C11.8522 7.37131 12.0469 7.29065 12.25 7.29065C12.4531 7.29065 12.6478 7.37131 12.7914 7.5149C12.935 7.65848 13.0156 7.85322 13.0156 8.05627V17.2438C13.0156 17.4468 12.935 17.6416 12.7914 17.7852C12.6478 17.9287 12.4531 18.0094 12.25 18.0094Z" fill="black"/>
</svg>
